<svg width="91" height="66" viewBox="0 0 91 66" fill="none" xmlns="http://www.w3.org/2000/svg">
<path d="M87.6486 5.47819V2.71663H76.6947V5.47819H73.9556V2.71663H71.194V8.1324H68.4724V13.6955H71.2165V19.1138H68.4599V21.9128H65.7483V19.1138H62.9992V16.4346H57.521V13.6955H54.7819V8.21729H52.0428V5.47819H49.3037V2.7391H41.0864V5.47819H38.3473V13.6955H35.6083V10.9564H32.8692V8.21729V5.47819H27.391V0H21.9128V2.7391H19.1737V5.47819H13.6955V8.21729H10.9564V10.9564H8.21728V13.6955V16.4346H5.47819V24.6519H2.73909V30.1301H0V32.8692H2.73909V30.1301H5.47819V35.6083H8.21728V43.8256H5.47819V54.7819H8.21728V65.7358H10.9564V65.7383H16.4346V62.9992H13.6955V57.521H10.9564V54.7819V46.5647H13.6955V41.0865H16.4346V52.0428H19.1737V57.521H21.9128V62.9992H24.6519V65.7383H30.1301V62.9992H27.391V54.7819H24.6519V52.0428H21.9128V38.3474H19.1737V35.6083H24.6519V38.3474H27.391V41.0865H46.5646V38.3474H52.0428V41.0865H49.3037V46.5647V54.7819H46.5646V65.7358H52.0428V46.5647H54.7819V65.7383H60.2601V65.7358H62.9992V62.9992H60.2601V41.069H62.9992V38.3623H65.7383L65.7483 32.8891H68.4949V35.6432H76.7297V30.1301H79.4213V27.391H82.1729V10.9988H87.6486V8.23727V8.1324H90.3877V5.47819H87.6486Z" fill="#0E0E0E"/>
</svg>
