<svg width="173" height="18" viewBox="0 0 173 18" fill="none" xmlns="http://www.w3.org/2000/svg">
<g clip-path="url(#clip0_2370_3459)">
<path d="M25.7175 0.310059L18.3694 17.6901H22.0425L23.8736 13.3451H32.4448L34.2759 17.6901H37.949L30.6009 0.310059H25.7175ZM25.192 10.2418L28.1675 3.20735L31.1411 10.2418H25.192Z" fill="white"/>
<path d="M54.5605 17.9983C55.4733 17.9989 56.3593 17.6851 57.0732 17.1085C57.7871 16.5319 58.2867 15.7265 58.49 14.8245C58.7061 13.7832 60.6561 4.46215 60.7074 4.20416C60.7678 3.90719 60.8905 3.72159 61.1652 3.72159C61.4398 3.72159 61.5607 3.90719 61.6211 4.20416C61.6815 4.50112 64.4227 17.6884 64.4227 17.6884H68.0958L65.0819 3.17033C64.7999 1.81913 63.4833 -0.00537016 61.1634 -0.00537016C60.2508 -0.00599702 59.365 0.307489 58.6511 0.883754C57.9372 1.46002 57.4375 2.26492 57.2339 3.16663C57.0178 4.20787 55.0677 13.5308 55.0146 13.7888C54.9542 14.0858 54.8315 14.2695 54.5587 14.2695C54.2858 14.2695 54.1632 14.0839 54.1027 13.7888C54.0496 13.5308 52.0995 4.20787 51.8835 3.16663C51.6799 2.26554 51.1808 1.46111 50.4677 0.88491C49.7545 0.308712 48.8696 -0.00515626 47.9577 -0.00537016C47.0467 -0.00540244 46.1627 0.308559 45.451 0.884966C44.7393 1.46137 44.242 2.26597 44.041 3.16663C43.3086 6.72283 41.0252 17.6847 41.0252 17.6847H44.7002C44.7002 17.6847 47.4468 4.48627 47.4999 4.20044C47.553 3.91461 47.7068 3.71787 47.9577 3.71787C48.2085 3.71787 48.3532 3.90347 48.4136 4.20044C48.4667 4.45843 50.4149 13.7795 50.6328 14.8208C50.8354 15.7232 51.3343 16.5291 52.0479 17.1065C52.7615 17.6838 53.6475 17.9983 54.5605 17.9983Z" fill="white"/>
<path d="M119.602 -0.00537016C118.689 -0.00599702 117.804 0.307489 117.09 0.883754C116.376 1.46002 115.876 2.26492 115.673 3.16663C115.457 4.20973 113.506 13.5308 113.453 13.7888C113.395 14.0858 113.27 14.2695 112.997 14.2695C112.725 14.2695 112.602 14.0839 112.541 13.7888C112.481 13.4937 109.74 0.304587 109.74 0.304587H106.067L109.081 14.8208C109.363 16.1757 110.679 17.9946 112.997 17.9946C113.91 17.9952 114.796 17.6814 115.51 17.1048C116.224 16.5281 116.724 15.7228 116.927 14.8208C117.143 13.7814 119.093 4.45843 119.146 4.20044C119.205 3.90347 119.329 3.71787 119.602 3.71787C119.875 3.71787 119.998 3.90347 120.058 4.20044C120.111 4.45843 122.061 13.7814 122.277 14.8208C122.48 15.7232 122.979 16.5291 123.692 17.1065C124.406 17.6838 125.292 17.9983 126.205 17.9983C128.525 17.9983 129.841 16.1794 130.122 14.8245C130.854 11.2701 133.137 0.308303 133.137 0.308303H129.462C129.462 0.308303 126.716 13.5067 126.663 13.7925C126.61 14.0784 126.456 14.2732 126.205 14.2732C125.954 14.2732 125.809 14.0876 125.749 13.7925C125.696 13.5345 123.748 4.21343 123.53 3.17033C123.327 2.26824 122.828 1.46274 122.114 0.885782C121.401 0.308822 120.515 -0.00538447 119.602 -0.00537016Z" fill="white"/>
<path d="M71.7762 0.312012V17.6902H86.4724V14.5869H75.4494V10.2419H84.634V7.13857H75.4494V3.41533H86.4724V0.312012H71.7762Z" fill="white"/>
<path d="M93.8205 0.312012H90.1456V17.6902H104.842V14.5869H93.8205V0.312012Z" fill="white"/>
<path d="M136.818 0.312012V17.6902H151.514V14.5869H140.493V10.2419H149.677V7.13857H140.493V3.41533H151.514V0.312012H136.818Z" fill="white"/>
<path d="M170.248 8.189C170.829 7.33324 171.13 6.3138 171.108 5.275C171.108 1.99164 168.481 0.310059 166.21 0.310059H155.189V17.6901H167.129C169.618 17.6901 172.333 15.6967 172.333 12.4134C172.346 11.5913 172.163 10.7782 171.8 10.043C171.437 9.3077 170.904 8.6718 170.248 8.189ZM166.21 3.41337C166.451 3.4119 166.69 3.4589 166.913 3.55165C167.135 3.6444 167.338 3.78106 167.508 3.95371C167.679 4.12635 167.813 4.33154 167.905 4.5574C167.996 4.78325 168.043 5.02527 168.041 5.26943C168.041 5.76168 167.848 6.23378 167.505 6.58186C167.162 6.92994 166.696 7.12548 166.21 7.12548H158.862V3.40038L166.21 3.41337ZM167.126 14.5868H158.858V10.2418H167.126C167.408 10.2391 167.688 10.2934 167.949 10.4015C168.21 10.5097 168.447 10.6696 168.647 10.8718C168.846 11.074 169.004 11.3144 169.11 11.5791C169.217 11.8438 169.271 12.1274 169.268 12.4134C169.269 12.6986 169.214 12.9812 169.107 13.245C169 13.5088 168.843 13.7485 168.644 13.9504C168.445 14.1524 168.209 14.3126 167.949 14.4218C167.689 14.531 167.411 14.5871 167.129 14.5868H167.126Z" fill="white"/>
<path d="M8.87704 3.72509C9.69843 3.72364 10.5084 3.91973 11.2406 4.29723C11.9727 4.67473 12.606 5.22288 13.0885 5.89667L16.4925 4.36172C15.703 3.03063 14.587 1.92934 13.2531 1.16501C11.9193 0.400674 10.4129 -0.000675456 8.8807 8.53316e-07C7.71495 0.000244569 6.56066 0.23322 5.48374 0.685644C4.40682 1.13807 3.42836 1.80107 2.60422 2.6368C1.78008 3.47253 1.12641 4.46461 0.680523 5.55641C0.234632 6.64821 0.00525287 7.81835 0.00549335 9C0.0054929 11.3855 0.939994 13.6734 2.60357 15.3607C4.26716 17.048 6.52365 17.9967 8.87704 17.9981C10.4086 17.998 11.9141 17.5963 13.2473 16.832C14.5804 16.0677 15.6958 14.9668 16.4852 13.6364L13.0812 12.1033C12.5991 12.7777 11.9659 13.3263 11.2337 13.7042C10.5015 14.0821 9.69133 14.2783 8.86973 14.2768C7.48971 14.2758 6.16654 13.7194 5.19106 12.7299C4.21559 11.7404 3.66764 10.3988 3.66764 9C3.66764 8.30682 3.80243 7.62044 4.0643 6.98009C4.32616 6.33975 4.70996 5.758 5.19377 5.2681C5.67758 4.77821 6.25191 4.38978 6.88391 4.12502C7.51591 3.86026 8.19319 3.72436 8.87704 3.72509Z" fill="white"/>
</g>
<defs>
<clipPath id="clip0_2370_3459">
<rect width="172.333" height="18" fill="white"/>
</clipPath>
</defs>
</svg>
