<svg width="23" height="22" viewBox="0 0 23 22" fill="none" xmlns="http://www.w3.org/2000/svg">
<path d="M5.16123 22H0.287922V7.156H5.16123V22ZM2.72473 5.12905H2.69297C1.05765 5.12905 0 3.98929 0 2.56483C0 1.10822 1.09001 0 2.75709 0C4.42417 0 5.45007 1.10822 5.48182 2.56483C5.48182 3.98929 4.42417 5.12905 2.72473 5.12905ZM22.7333 22H17.8606V14.0588C17.8606 12.0631 17.155 10.702 15.3918 10.702C14.0456 10.702 13.2438 11.6201 12.8915 12.5064C12.7626 12.8235 12.7312 13.2668 12.7312 13.7104V22H7.85817C7.85817 22 7.92198 8.54862 7.85817 7.156H12.7312V9.25776C13.3788 8.24629 14.5375 6.80761 17.123 6.80761C20.3292 6.80761 22.7333 8.92915 22.7333 13.4885V22Z" fill="#0E0E0E"/>
</svg>
